<svg width="374" height="363" viewBox="0 0 374 363" fill="none" xmlns="http://www.w3.org/2000/svg">
<g clip-path="url(#clip0_274_216)">
<mask id="path-1-inside-1_274_216" fill="white">
<path fill-rule="evenodd" clip-rule="evenodd" d="M208.784 233.489C249.102 213.221 276.766 171.48 276.766 123.278C276.766 55.1933 221.573 0 153.489 0C85.4042 0 30.2109 55.1933 30.2109 123.278C30.2109 172.426 58.972 214.856 100.582 234.657L47.2295 491.413H264.612L208.784 233.489Z"/>
</mask>
<path fill-rule="evenodd" clip-rule="evenodd" d="M208.784 233.489C249.102 213.221 276.766 171.48 276.766 123.278C276.766 55.1933 221.573 0 153.489 0C85.4042 0 30.2109 55.1933 30.2109 123.278C30.2109 172.426 58.972 214.856 100.582 234.657L47.2295 491.413H264.612L208.784 233.489Z" fill="white"/>
<path d="M208.784 233.489L199.801 215.62L185.959 222.578L189.236 237.72L208.784 233.489ZM100.582 234.657L120.163 238.726L123.359 223.347L109.175 216.597L100.582 234.657ZM47.2295 491.413L27.6478 487.344L22.6465 511.413H47.2295V491.413ZM264.612 491.413V511.413H289.405L284.16 487.182L264.612 491.413ZM256.766 123.278C256.766 163.631 233.627 198.615 199.801 215.62L217.767 251.358C264.577 227.826 296.766 179.329 296.766 123.278H256.766ZM153.489 20C210.527 20 256.766 66.239 256.766 123.278H296.766C296.766 44.1476 232.619 -20 153.489 -20V20ZM50.2109 123.278C50.2109 66.239 96.4499 20 153.489 20V-20C74.3586 -20 10.2109 44.1476 10.2109 123.278H50.2109ZM109.175 216.597C74.2699 199.987 50.2109 164.422 50.2109 123.278H10.2109C10.2109 180.429 43.6742 229.726 91.9877 252.716L109.175 216.597ZM66.8112 495.482L120.163 238.726L80.9999 230.588L27.6478 487.344L66.8112 495.482ZM264.612 471.413H47.2295V511.413H264.612V471.413ZM189.236 237.72L245.065 495.644L284.16 487.182L228.331 229.258L189.236 237.72Z" fill="#785B2F" fill-opacity="0.07" mask="url(#path-1-inside-1_274_216)"/>
<path d="M163.15 233.473C136.577 224.876 115.931 240.312 108.93 249.104C116.506 228.001 147.141 227.065 161.512 229.234L163.15 233.473Z" fill="#F7BF68"/>
<path d="M53.2441 266.201L47.8711 257.408C73.2714 233.962 96.8806 242.754 105.51 250.081C92.2239 241.093 65.1302 257.082 53.2441 266.201Z" fill="#F7BF68"/>
<path d="M0 183.649C5.08004 178.569 19.376 176.648 25.8889 176.322L57.1507 232.496C91.148 234.059 102.904 243.568 104.532 248.127C78.741 232.887 51.4519 250.895 41.0313 261.804L0 183.649Z" fill="#FDFDFD" stroke="black"/>
<path d="M55.6848 232.008L11.2344 146.526C29.6008 141.837 56.0105 164.762 66.9196 176.811L106.974 249.593C96.423 233.571 68.385 231.194 55.6848 232.008Z" fill="#FDFDFD" stroke="black"/>
<path d="M107.461 247.639L66.4297 176.322C87.1407 147.405 116.416 153.853 128.465 160.691L165.589 230.054C131.591 221.066 112.671 238.032 107.461 247.639Z" fill="#FDFDFD" stroke="black"/>
<path d="M148.377 306.532C148.8 250.463 205.997 229.04 234.542 225.337L276.622 227.725C342.558 245.394 355.799 286.654 354.576 325.597C353.598 356.752 319.587 369.945 302.703 372.647L299.728 379.777L177.27 379.347L176.411 362.59C153.208 356.36 149.816 327.761 148.377 306.532Z" fill="#F7BF68"/>
<path d="M223.127 195.561L236.765 140.562C241.651 148.711 257.428 148.762 263.731 147.073C268.774 145.722 271.878 148.343 272.8 149.822C280.537 151.803 280.085 171.967 276.116 180.687C272.147 189.407 273.145 192.292 275.584 192.99C278.023 193.688 280.935 191.106 281.715 187.294C282.339 184.244 285.494 184.029 286.994 184.303C294.156 193.553 286.787 199.221 282.207 200.899L274.233 235.013C274.44 235.784 273.498 238.994 268.081 245.67C261.309 254.015 245.865 251.848 238.263 245.327C232.181 240.111 232.911 230.397 234.037 226.192L236.448 215.862C224.463 213.489 222.573 201.339 223.127 195.561Z" fill="#ECF0F9"/>
<path d="M224.389 192.897L238.026 137.898C242.912 146.047 258.69 146.098 264.993 144.409C270.036 143.058 273.14 145.679 274.062 147.159C281.799 149.139 281.347 169.303 277.378 178.023C273.409 186.743 274.407 189.629 276.846 190.326C279.285 191.024 282.196 188.442 282.976 184.63C283.601 181.58 286.756 181.365 288.255 181.639C295.418 190.89 288.049 196.557 283.469 198.235L275.495 232.35C275.702 233.12 274.76 236.33 269.343 243.006C262.571 251.351 247.127 249.184 239.525 242.664C233.443 237.447 234.173 227.733 235.298 223.528L237.71 213.198C225.724 210.825 223.835 198.675 224.389 192.897Z" fill="white"/>
<path d="M238.655 157.273C240.126 156.364 243.335 155.35 244.402 158.562" stroke="black"/>
<path d="M246.014 193.369C248.164 193.393 252.699 192.401 253.642 188.238" stroke="black"/>
<path d="M237.319 163.804C238.79 162.895 242 161.881 243.066 165.093" stroke="black"/>
<path d="M263.354 160.172C264.826 159.263 268.035 158.249 269.101 161.461" stroke="black"/>
<path d="M260.53 167.873C262.001 166.965 265.21 165.951 266.277 169.163" stroke="black"/>
<path d="M242.855 177.753C241.225 179.99 239.4 184.44 245.135 184.344" stroke="black"/>
<circle cx="240.06" cy="165.77" r="1.61492" transform="rotate(-15 240.06 165.77)" fill="#2E3446"/>
<circle cx="263.587" cy="169.664" r="1.61492" transform="rotate(-15 263.587 169.664)" fill="#2E3446"/>
<path d="M234.605 224.974C214.313 227.127 169.391 241.637 152.041 282.458C150.351 286.969 147.277 297.995 148.498 306.015C148.924 324.114 155.104 360.603 176.413 361.773M198.766 266.46C190.622 287.339 178.043 328.094 176.413 361.773M293.369 262.56C320.49 287.038 313.706 336.222 302.321 372.027M277.169 228.061C296.061 231.501 337.081 248.296 350.027 287.956C359.471 311.889 363.151 362.21 302.321 372.027M302.321 372.027C299.07 382.251 295.444 391.384 292.125 398.539L179.731 394.453C176.677 385.367 175.819 374.039 176.413 361.773" stroke="black"/>
<path d="M237.02 136.679C232.678 130.875 237.089 129.196 239.837 129.081C238.8 122.889 249.335 121.808 253.125 125.272C256.156 128.043 266.015 130.196 270.566 130.926C283.279 129.709 288.943 140.849 290.186 146.572C301.246 150.7 297.298 163.827 294.709 167.631C292.638 170.675 289.897 178.46 289.099 182.448C287.357 180.592 284.383 181.098 282.994 185.203C280.577 192.349 269.275 191.119 275.906 181.504C282.537 171.888 280.68 159.174 279.707 155.08C278.929 151.805 277.976 149.628 275.814 150.049C274.985 144.198 260.705 143.812 252.838 144.634C249.375 144.401 241.362 142.484 237.02 136.679Z" fill="#2E3446"/>
<path d="M262.412 210.552C257.815 214 243.713 213.537 237.607 213.297L236.613 218.13C254.714 218.992 261.813 213.306 262.412 210.552Z" fill="#ECF0F9"/>
<path d="M297.026 259.695C294.066 260.846 288.047 264.629 287.652 270.549" stroke="black"/>
<path fill-rule="evenodd" clip-rule="evenodd" d="M219.346 122.042C226.148 121.161 232.303 116.766 235.113 109.974C239.293 99.873 234.493 88.2959 224.391 84.116C214.29 79.9361 202.713 84.7363 198.533 94.8376C195.315 102.615 197.42 111.267 203.169 116.744L201.676 121.209L217.935 126.991L219.547 122.116L219.346 122.042Z" fill="#F7BF68"/>
<path d="M209.882 119.86L209.299 104.857C209.132 103.082 208.427 99.8226 206.942 100.985C205.457 102.147 207.542 103.969 208.77 104.735C210.192 105.034 213.299 105.18 214.354 103.376M214.354 103.376C215.674 101.121 217.061 98.7018 214.65 97.9939C212.239 97.2859 213.462 103.2 214.354 103.376ZM214.354 103.376C215.34 104.106 217.69 105.49 219.205 105.19M219.205 105.19C221.098 104.815 223.345 102.654 222.278 101.73C221.212 100.806 218.849 103.015 219.205 105.19ZM219.205 105.19C219.548 106.072 220.454 108.005 221.334 108.679M221.334 108.679C222.435 109.52 226.253 110.328 226.543 108.227C226.833 106.126 222.523 106.273 221.334 108.679ZM221.334 108.679C218.816 111.886 213.733 118.88 213.547 121.197" stroke="black" stroke-width="0.5"/>
<rect x="201.793" y="123.371" width="16.8468" height="2.31482" rx="1.15741" transform="rotate(19.1895 201.793 123.371)" fill="#703C1D"/>
<path d="M200.133 127.56C200.344 126.953 201.008 126.632 201.616 126.843L215.315 131.611C215.929 131.824 216.253 132.495 216.04 133.109C215.831 133.708 215.185 134.034 214.579 133.846L214.211 133.732C213.636 133.553 213.01 133.718 212.597 134.156L209.837 137.083L203.127 134.576L202.781 130.906C202.711 130.17 202.224 129.541 201.529 129.289L200.836 129.038C200.237 128.821 199.923 128.162 200.133 127.56Z" fill="#703C1D"/>
</g>
<defs>
<clipPath id="clip0_274_216">
<rect width="374" height="363" fill="white"/>
</clipPath>
</defs>
</svg>
